<svg xmlns="http://www.w3.org/2000/svg" xmlns:xlink="http://www.w3.org/1999/xlink" width="288" zoomAndPan="magnify" viewBox="0 0 216 72" height="96" preserveAspectRatio="xMidYMid meet" version="1.0"><defs><g/><clipPath id="36e0d6ae2f"><path d="M 69.890625 0.878906 L 216 0.878906 L 216 70.84375 L 69.890625 70.84375 Z M 69.890625 0.878906 " clip-rule="nonzero"/></clipPath><clipPath id="8dc5ae46da"><path d="M 0.890625 0.878906 L 147 0.878906 L 147 70.84375 L 0.890625 70.84375 Z M 0.890625 0.878906 " clip-rule="nonzero"/></clipPath><clipPath id="9ddf5c76ac"><rect x="0" width="147" y="0" height="71"/></clipPath><clipPath id="887719dd5d"><path d="M 0 0.953125 L 69.738281 0.953125 L 69.738281 71.046875 L 0 71.046875 Z M 0 0.953125 " clip-rule="nonzero"/></clipPath><clipPath id="c034efb14b"><path d="M 0 0.953125 L 69.738281 0.953125 L 69.738281 71 L 0 71 Z M 0 0.953125 " clip-rule="nonzero"/></clipPath><clipPath id="f6973840ea"><rect x="0" width="70" y="0" height="72"/></clipPath><clipPath id="d97ab73845"><path d="M 0.152344 1.308594 L 70.011719 1.308594 L 70.011719 71.167969 L 0.152344 71.167969 Z M 0.152344 1.308594 " clip-rule="nonzero"/></clipPath><clipPath id="79995d8ab5"><rect x="0" width="216" y="0" height="72"/></clipPath></defs><g transform="matrix(1, 0, 0, 1, 0, -0.000000000000001479)"><g clip-path="url(#79995d8ab5)"><g clip-path="url(#36e0d6ae2f)"><g transform="matrix(1, 0, 0, 1, 69, -0.000000000000001443)"><g clip-path="url(#9ddf5c76ac)"><g clip-path="url(#8dc5ae46da)"><path fill="#000000" d="M 0.890625 0.878906 L 147.101562 0.878906 L 147.101562 70.84375 L 0.890625 70.84375 Z M 0.890625 0.878906 " fill-opacity="1" fill-rule="nonzero"/></g></g></g></g><g clip-path="url(#887719dd5d)"><g transform="matrix(1, 0, 0, 1, 0, -0.000000000000001443)"><g clip-path="url(#f6973840ea)"><g clip-path="url(#c034efb14b)"><path fill="#e7000b" d="M 0 0.953125 L 69.738281 0.953125 L 69.738281 70.964844 L 0 70.964844 Z M 0 0.953125 " fill-opacity="1" fill-rule="nonzero"/></g></g></g></g><g clip-path="url(#d97ab73845)"><path fill="#f1f2f2" d="M 35.082031 1.308594 C 31.679688 30.074219 28.917969 32.832031 0.152344 36.238281 C 0.214844 36.246094 0.273438 36.253906 0.332031 36.257812 C 28.929688 39.652344 31.683594 42.460938 35.082031 71.167969 C 38.484375 42.402344 41.246094 39.640625 70.011719 36.238281 C 41.246094 32.832031 38.484375 30.074219 35.082031 1.308594 Z M 35.082031 1.308594 " fill-opacity="1" fill-rule="nonzero"/></g><g fill="#ffffff" fill-opacity="1"><g transform="translate(83.210548, 58.903881)"><g><path d="M 33.796875 0 L 33.796875 -26.230469 L 12.378906 -26.230469 L 12.378906 -32.964844 L 33.796875 -32.964844 L 33.796875 -42.773438 L 1.667969 -42.773438 L 1.667969 -16.800781 L 23.085938 -16.800781 L 23.085938 -9.746094 L 1.667969 -9.746094 L 1.667969 0 Z M 33.796875 0 "/></g></g></g><g fill="#ffffff" fill-opacity="1"><g transform="translate(117.237893, 58.903881)"><g><path d="M 33.796875 0 L 33.796875 -9.746094 L 12.378906 -9.746094 L 12.378906 -32.964844 L 33.796875 -32.964844 L 33.796875 -42.773438 L 1.667969 -42.773438 L 1.667969 0 Z M 33.796875 0 "/></g></g></g><g fill="#ffffff" fill-opacity="1"><g transform="translate(147.659603, 58.903881)"><g><path d="M 43.738281 0 L 43.738281 -42.773438 L 0.960938 -42.773438 L 0.960938 -32.964844 L 3.078125 -32.964844 L 3.078125 0 L 11.671875 0 L 11.671875 -32.964844 L 16.996094 -32.964844 L 16.996094 0 L 27.703125 0 L 27.703125 -32.964844 L 33.027344 -32.964844 L 33.027344 0 Z M 43.738281 0 "/></g></g></g><g fill="#ffffff" fill-opacity="1"><g transform="translate(192.211253, 58.903881)"><g><path d="M 12.378906 0 L 12.378906 -9.746094 L 1.667969 -9.746094 L 1.667969 0 Z M 12.378906 0 "/></g></g></g></g></g></svg>